<svg xmlns="http://www.w3.org/2000/svg" viewBox="0 0 213.07 116.27"><defs><style>.cls-1{fill:#010101;}.cls-2{fill:#fff;}</style></defs><g id="Layer_2" data-name="Layer 2"><g id="Layer_1-2" data-name="Layer 1"><path class="cls-1" d="M106.53,0C47.47,0,0,26.27,0,58.13s46.93,58.14,106.53,58.14c59.2,0,106.54-26.27,106.54-58.14S165.47,0,106.53,0Z"/><path class="cls-2" d="M106.53,5.08c-53.9,0-97.22,24-97.22,53.05s42.83,53.06,97.22,53.06c54,0,97.23-24,97.23-53.06s-43.44-53-97.23-53Z"/><path class="cls-1" d="M184.11,55.62a70.92,70.92,0,0,0-9.47,2.67,43,43,0,0,1-6.26,1.33h-.94l.4-.53.94-.93c3.2-3.07,6.66-5.6,10-8.67.93-1.2,3.2-2,2.53-4.27-.67-.26-2.53.4-3.33.8a73.39,73.39,0,0,0-17.6,12l-.4.54c-3.07,2.26-3.6,7.6-8.27,7.33a16.72,16.72,0,0,1-4.4-.67A70.23,70.23,0,0,0,161.71,47s.8-2.67-.27-2.54c-4.26,1.6-8.26,5.2-11.6,8.14.27-1.34,2.67-4.14,1.47-5.87-7.33,1.6-17.73,11.47-17.73,11.47-2,1.33-2.67,5.46-5.87,4.93-1.87-.27-4.27-.27-5.33-.93,2-1.34,3.86-2.54,5.73-4a151.06,151.06,0,0,0,12.13-10.67c.27-.4,1.6-.93.94-1.73-1.34-1.07-2.8.4-4.27.66-6.4,2.8-10.67,6.67-14.93,11.74a33.82,33.82,0,0,0-2.67,3.46c-2.93-.4-4.53-.26-6-1.33L116,58.16c4.93-3.87,9.86-7.74,13.73-13.34-.4-2.13-2.4-.53-3.33-.13A39.28,39.28,0,0,0,109,59.76a39.57,39.57,0,0,1-8-1.34v-.13c6.4-3.33,12-8.93,16.54-15.6,0,0,3.6-6.53-4.4-1.2A43.19,43.19,0,0,0,97.84,57.76s-4,.13-4-.27a63.94,63.94,0,0,0,10.67-17.33c.13-.94.8-2.94-.67-3.2-5.33,2.26-9.06,8.66-12,14.66-.8,1.74-1.33,4-2.13,5.6-3.6-.13-6.13.14-9.6-.93,4.4-3.87,9.2-6.93,13.2-11.6.67-1.33,5.07-4.27,4.93-8.27-1.33-.8-2.66.14-3.6.8L82.38,47h-.67c2-3.47,6.27-8.54,8-12.14.67-1.33,1.33-2.26,1.33-3.73l-1.2-.4A35.59,35.59,0,0,0,70.38,54.42c-.67.94-1.07,2.94-2.67,2.4,0-3.06-1.07-5.86-2-8.66A40.82,40.82,0,0,0,49.44,30.29c-1.2-.67-1.86.53-1.33,1.47.93,5.6,4.4,9.06,6.67,13.33,2.93,4.4,6.66,8.4,10,12.27-1.2.4-26.4,6.4-30.8,10a11.6,11.6,0,0,0-6.14,10.93,5.32,5.32,0,0,0,3.34,4.4c1.6.27,2.66.4,3.86-.27,4.67-6,10-11.33,16-14.93,4-2.27,7.2-4.27,11.87-4.93,2,1.86,3.2,4.26,5.87,6.4,5.33,4.8,9.86,8,17.06,9.33l.67-.4-.27-.67a38.46,38.46,0,0,0-15.6-12c-1.06-.66-3.46-2-3.6-3.6A23.42,23.42,0,0,1,80,61.09c5.33,9.33,11.2,19.33,19.6,25.07.66.13,1.06-.67.8-1.34-5.87-14.13-9.6-15.46-15.6-22.13-.4-.53-.8-1.6,0-2h5.6c1.86.27,4.4-.13,4.8.67.26,9.33,6.4,16.66,10,23.86,0,0,1.33.67,1.2-.53v-.13C104.91,67.89,98.64,64,97.71,61.22a5.42,5.42,0,0,1,2.67.4,45,45,0,0,0,16.53,18.67c.13.13,1.07.27.4-1.07-2-6.8-8.4-10.4-12.53-15.6l-.67-1.33.8-.13c1.73.26,4.13.66,5.47,1.6A44.21,44.21,0,0,0,119.31,75c2.8,2.53,5.2,5.46,9.33,6.26h.54l.13-.4v-.53c-2.67-6.8-9.87-9.73-14.67-14.67-.4-.13-1.06-1.33-.13-1.6l8,1.2c12,16,16.8,15.47,16.8,15.47s3.6.8,2-1.87c-4-4-7.47-6-12.13-9.73-.8-.8-2.94-2.13-2.67-3.6l5.33.67a9.6,9.6,0,0,1,3.6.66c6.27,2.8,6.8,11.6,22.14,13.47.53,0,.66-.67.26-1.2-4.4-3.33-15.73-10.93-16.4-11.87L150,68.56c7.73,4.26,12.4,7.33,23.46,5.86.94-1.33-.66-1.86-2-2.4l-6.13-2.4-5.47-1.33c6.67-2.13,15.2-4.53,21.07-8l2.93-2.13a5.3,5.3,0,0,0,1.34-2c.4-1.07-1.2-.54-1.2-.54Z"/></g></g></svg>