<svg xmlns="http://www.w3.org/2000/svg" xmlns:xlink="http://www.w3.org/1999/xlink" viewBox="0 0 452.88 245.68"><defs><style>.cls-1{fill:#fff;}.cls-2{fill:none;}.cls-3{fill:url(#무제_그라디언트);}</style><radialGradient id="무제_그라디언트" cx="-194.58" cy="420.48" r="0.86" gradientTransform="matrix(386.01, 0, 0, -386.01, 75521.39, 162430.17)" gradientUnits="userSpaceOnUse"><stop offset="0" stop-color="#fff"/><stop offset="0.01" stop-color="#fff"/><stop offset="0.03" stop-color="#cbffff"/><stop offset="0.06" stop-color="#96ffff"/><stop offset="0.08" stop-color="#68ffff"/><stop offset="0.11" stop-color="#43ffff"/><stop offset="0.14" stop-color="#25ffff"/><stop offset="0.16" stop-color="#1ff"/><stop offset="0.19" stop-color="#04ffff"/><stop offset="0.22" stop-color="aqua"/><stop offset="1" stop-color="blue" stop-opacity="0"/></radialGradient></defs><g id="Layer_2" data-name="Layer 2"><g id="레이어_1" data-name="레이어 1"><g id="Artboard1"><g id="Disney-Plus"><path class="cls-1" d="M320.08,159.05c-6.27,1.44-22.77,2.26-22.77,2.26l-2.09,6.53a94.53,94.53,0,0,1,14.23-.08s2-.22,2.18,2.22a37.44,37.44,0,0,1-.17,4.7s-.13,1.48-2.22,1.83c-2.27.39-17.76,1-17.76,1L289,186s-.91,2,1.18,1.39,18.19-3.57,20.33-3.13,4.78,3.57,4,6.35c-.87,3.4-17.06,13.76-26.94,13,0,0-5.18.35-9.58-6.66-4.09-6.66,1.57-19.33,1.57-19.33s-2.57-5.92-.7-7.87c0,0,1.14-1,4.36-1.27l4-8.22s-4.53.3-7.23-3c-2.52-3.17-2.7-4.61-.78-5.48s20.89-4.44,33.86-4c0,0,4.53-.43,8.4,7.4C321.38,155.13,323.3,158.31,320.08,159.05Zm-48.8,31.6c-1.65,3.92-6,8.1-11.49,5.49s-14-20.16-14-20.16-3.27-6.53-3.88-6.4c0,0-.69-1.26-1.13,5.88s.09,21-2.74,23.2a5.05,5.05,0,0,1-7.66-1.26c-1.53-2.53-2.18-8.53-1.35-19.07,1-10.53,3.44-21.76,6.57-25.29s5.66-.95,6.62,0c0,0,4.18,3.79,11.1,14.93l1.22,2s6.26,10.53,6.92,10.49c0,0,.52.48.95.13.66-.18.4-3.57.4-3.57s-1.31-11.45-7-30.86a9,9,0,0,1-.26-4.7c.56-2.31,2.87-1.22,2.87-1.22s8.88,4.44,13.15,18.89S272.93,186.73,271.28,190.65Zm-43.61-37.13c-.74,1.48-1.18,3.62-4.92,4.18,0,0-35.83,2.44-37.52,5,0,0-1.27,1.48.69,1.92s10.06,1.48,14,1.7c4.17,0,18.28.17,23.33,6.48,0,0,3,3,2.87,9.8-.13,7-1.35,9.4-4,11.92-2.83,2.35-27.12,13.23-42.79-3.48,0,0-7.22-8.05,2.48-14.15,0,0,7-4.22,24.81.74,0,0,5.4,2,5.14,3.92s-4.44,4.31-10.45,4.18a20,20,0,0,1-9.27-2.52c.79.3-6.26-3.4-8.44-.88-2.18,2.31-1.66,3.75.48,5.18,5.44,3.09,26.46,2,32.73-5,0,0,2.48-2.83-1.31-5.13s-14.62-3.49-18.84-3.7c-4.05-.22-19.11,0-21.29-4,0,0-2.17-2.7.22-10.36,2.52-8,20.07-11.1,27.64-11.8,0,0,20.85-.74,24.68,3.53A3.24,3.24,0,0,1,227.67,153.52Zm-59.2,47c-2.53,1.87-7.88,1-9.4-1.05-1.53-1.87-2-9.31-1.75-21s.57-26.42,3.1-28.72c2.69-2.35,4.35-.31,5.39,1.3a12.21,12.21,0,0,1,2.79,7c.26,3.7,1.13,23.11,1.13,23.11S170.86,198.66,168.47,200.49Zm5.44-62.59c-7.36,2.43-12.41,1.61-16.67-.22-1.87,3.26-3,4.26-4.4,4.48-2.09.22-4-3.13-4.31-4.22-.35-.83-1.35-2.22-.13-5.53a12.68,12.68,0,0,1-3.79-12.19c1-3.91,8.1-18.8,29.56-20.54,0,0,10.49-.78,12.27,4.83h.31s10.19,0,10,9.1S185.4,134,173.91,137.9Zm-20-20.16c-2.18,3.49-2.27,5.57-1.27,7a51.55,51.55,0,0,1,13.67-14.28A15.55,15.55,0,0,0,153.89,117.74Zm29.64-5.83c-6.75,1-17.19,10.06-22.16,17.45,7.62,1.4,21.07.88,27-11.27C188.36,118.09,191.23,110.56,183.53,111.91ZM366.69,182c-4,7.06-15.41,21.77-30.55,18.33a156.7,156.7,0,0,0-11.58,42.74s-.52,3.57-3.48,2.31c-2.92-1-7.79-5.92-8.75-12.67-1.05-8.88,2.91-23.89,11-41.09-2.35-3.83-4-9.31-2.57-17.1,0,0,2-14.45,16.54-27.51,0,0,1.74-1.53,2.74-1s.61,5.18-.3,7.45-7.4,13.49-7.4,13.49-4.05,7.57-2.92,13.54c7.62-11.71,24.94-35.35,35.69-27.9,3.62,2.56,5.27,8.18,5.27,14.23A33,33,0,0,1,366.69,182Zm-3.13-18.54s-.61-4.66-5.14.48a111.22,111.22,0,0,0-16.67,23.46c6-.65,11.71-3.92,13.45-5.57C358,179.33,364.6,172.54,363.56,163.49Zm-211.33,5.92c-.82,10.53-4.87,28.25-33.56,37-18.93,5.7-36.82,3-46.57.48-.22,3.87-.66,5.53-1.26,6.18-.83.83-7,4.4-10.41-.65-1.52-2.4-2.31-6.75-2.74-10.62-21.94-10.1-32-24.64-32.43-25.29a8.84,8.84,0,0,1-.48-12.11c4.7-5.78,20.07-11.57,33.91-13.92.48-11.84,1.87-20.77,3.53-24.86,2-4.74,4.52-.48,6.7,2.74,1.83,2.4,2.92,12.71,3,20.94,9.06-.43,14.41.22,24.51,2,13.14,2.39,21.94,9.09,21.15,16.71-.56,7.49-7.44,10.58-10,10.8s-7-1.75-7-1.75c-2.92-1.39-.22-2.61,3.31-4.13,3.83-1.87,3-3.79,3-3.79-1.44-4.18-18.5-7.09-35.48-7.09-.08,9.36.4,24.9.61,34a97.81,97.81,0,0,0,20.77,1.83S136,196.66,137.35,169s-43.23-54.33-76.18-62.77C28.26,97.59,9.63,103.6,8,104.42s-.13,1.14-.13,1.14a31.16,31.16,0,0,1,4.88,1.3c3.26,1,.74,2.74.74,2.74-5.62,1.79-11.93.66-13.15-1.91s.83-4.88,3.18-8.19C5.89,96,8.46,96.15,8.46,96.15c40.7-14.1,90.28,11.41,90.28,11.41C145.18,131.11,153.1,158.7,152.23,169.41ZM29.4,168C24.78,170.24,28,173.5,28,173.5c8.66,9.32,19.33,15.15,29.47,18.76,1.17-16.06,1-21.72,1.13-29.81C42.72,163.53,33.58,166.06,29.4,168Z"/><path class="cls-1" d="M452.88,164.67v5.74a2.25,2.25,0,0,1-2.26,2.27H423.24c0,1.43,0,2.69,0,3.87a208.14,208.14,0,0,1-1.18,23.2,2.26,2.26,0,0,1-2.22,2.05H414a2.13,2.13,0,0,1-1.57-.7,2.08,2.08,0,0,1-.52-1.66,206.4,206.4,0,0,0,1.21-22.89c0-1.22,0-2.48,0-3.87H386a2.26,2.26,0,0,1-2.27-2.27v-5.74A2.25,2.25,0,0,1,386,162.4h26.68a200.92,200.92,0,0,0-3.53-27.51,2,2,0,0,1,.4-1.56,1.81,1.81,0,0,1,1.43-.7h6.4a2.1,2.1,0,0,1,2.05,1.7,222.3,222.3,0,0,1,3.48,28.07h27.73A2.31,2.31,0,0,1,452.88,164.67Z"/><path class="cls-2" d="M86.94,88.8h0m-.31,0c-.13,0-.26,0-.39,0a1.29,1.29,0,0,0,.39,0h0Zm0,0c-.13,0-.26,0-.39,0a1.29,1.29,0,0,0,.39,0h0Z"/><path class="cls-3" d="M415.62,119.09a191.05,191.05,0,0,0-336-33.95,2.23,2.23,0,0,0-.26,2,2.1,2.1,0,0,0,1.39,1.39l5,1.7a3.17,3.17,0,0,0,.87.13A2.86,2.86,0,0,0,88.9,89.1,180.84,180.84,0,0,1,238.59,9.79,181.14,181.14,0,0,1,405.35,120.31a2.6,2.6,0,0,0,2.39,1.61h5.92a2,2,0,0,0,1.7-.91A1.93,1.93,0,0,0,415.62,119.09Zm-329-30.25a1.1,1.1,0,0,1-.39-.09,1.1,1.1,0,0,0,.39.09h0Zm319.93,32.3a1.92,1.92,0,0,0,.39.22C406.78,121.27,406.65,121.23,406.52,121.14Z"/></g></g></g></g></svg>