<svg xmlns="http://www.w3.org/2000/svg" viewBox="0 0 134.5 134.5"><defs><style>.cls-1{fill:#fff;}</style></defs><g id="Layer_2" data-name="Layer 2"><g id="Layer_1-2" data-name="Layer 1"><path class="cls-1" d="M28.6,0H105.9a28.6,28.6,0,0,1,28.6,28.6V105.9A28.59,28.59,0,0,1,105.9,134.5H28.59A28.59,28.59,0,0,1,0,105.9V28.6A28.6,28.6,0,0,1,28.6,0Z"/><path d="M57.5,134.5h19v-48H94.09l1.83-18.11s.38-.89-1.54-.89H76.5V53.83S75.71,43.5,86,43.5H96.5v-16S92,25.51,81,25.62a26.73,26.73,0,0,0-17.2,7.09S57.5,38.39,57.5,44.83V67.5h-18v19h18Z"/></g></g></svg>