<svg xmlns="http://www.w3.org/2000/svg" viewBox="0 0 129.1 129.36"><defs><style>.cls-1,.cls-2{fill:#fff;}.cls-2{fill-rule:evenodd;}</style></defs><g id="Layer_2" data-name="Layer 2"><g id="Layer_1-2" data-name="Layer 1"><path class="cls-1" d="M0,88.37V41a6.36,6.36,0,0,0,.26-1c.1-1.56.19-3.12.26-4.69A41.62,41.62,0,0,1,3.19,22.56,32.42,32.42,0,0,1,13.93,8.05C19.63,3.6,26.33,1.53,33.42.83c4.46-.44,9-.41,13.46-.56,1.58-.05,3.16,0,4.73,0A5.35,5.35,0,0,0,52.77,0H76.33a2.57,2.57,0,0,0,.77.25c4.29.1,8.59.11,12.87.3,2.9.12,5.79.42,8.67.75a33.64,33.64,0,0,1,11.52,3.63A31.89,31.89,0,0,1,120.23,13,34.05,34.05,0,0,1,126,23.05a50.38,50.38,0,0,1,2.82,17.42A9.15,9.15,0,0,0,129.1,42V87.6a1.46,1.46,0,0,0-.25.52c-.1,1.9-.12,3.81-.29,5.7a49.31,49.31,0,0,1-.81,6.88c-1.67,7.32-4.78,13.85-10.55,19a34,34,0,0,1-11.59,6.86,53,53,0,0,1-17.49,2.58,9,9,0,0,0-1.54.26H42.52a3.33,3.33,0,0,0-.77-.26c-3.62-.27-7.24-.43-10.85-.8A34.11,34.11,0,0,1,20,125.12a32.94,32.94,0,0,1-11-8.3,31.47,31.47,0,0,1-5.42-8.73A47.47,47.47,0,0,1,.25,89.52,5.39,5.39,0,0,0,0,88.37Zm86.21,29.21v-.12c2.7-.21,5.39-.44,8.09-.64a26.63,26.63,0,0,0,11.1-3.3,20.82,20.82,0,0,0,8.55-9,30,30,0,0,0,2.82-11c.32-3.75.52-7.53.52-11.3,0-12.66-.16-25.32-.23-38a66.33,66.33,0,0,0-1-12.73,23.08,23.08,0,0,0-6.15-12.12,22.76,22.76,0,0,0-10.55-5.81c-4.9-1.33-9.94-1.42-14.93-1.46-14-.11-28.05.13-42.08.17a54.11,54.11,0,0,0-11.57,1.05c-5.73,1.26-10.54,4-14,8.89a26.73,26.73,0,0,0-4.46,13.54c-.39,5-.46,10-.55,15-.08,4.65-.07,9.3,0,13.95q.2,13.79.51,27.56a30.09,30.09,0,0,0,2.51,11.46,21.06,21.06,0,0,0,9.88,10.4A28.52,28.52,0,0,0,35.91,117c4.1.32,8.21.51,12.32.53C60.89,117.62,73.55,117.58,86.21,117.58Z"/><path class="cls-2" d="M31.26,64.82A33.27,33.27,0,1,1,64,98,33.14,33.14,0,0,1,31.26,64.82Zm54.56,0a21.35,21.35,0,1,0-22.51,21.3C76.17,86.84,86.2,76,85.82,64.78Z"/><path class="cls-2" d="M91.2,30.34c-.5-4,3.66-8.1,8.11-7.88a8.13,8.13,0,0,1,7.54,8.12,8,8,0,0,1-8,7.62C95,38.11,90.82,34.71,91.2,30.34Z"/></g></g></svg>