<svg xmlns="http://www.w3.org/2000/svg" viewBox="0 0 20.17 8.32"><defs><style>.cls-1{fill:#fff;}.cls-2{fill:#e72964;}</style></defs><g id="Layer_2" data-name="Layer 2"><g id="Layer_1-2" data-name="Layer 1"><path class="cls-1" d="M0,8.32.15,7,.54,2.35l.14-2H3c.06.31.11.54.14.67s.09.34.18.64.21.65.35,1.06c.21.64.39,1.26.56,1.88L4.7,6.25,5.49,4.1,6.63,1.31A3,3,0,0,0,6.75,1c0-.12.11-.34.2-.65H9.36c-.06,1.12-.1,2.36-.13,3.72s0,2.38,0,3.05c0,.33,0,.73,0,1.22H7.61c0-.4,0-.72,0-1l.1-3.49c0-.49,0-1,0-1.45V1.92L5.61,7.63l-.25.69H3.75l-1-3.61-.25-.8-.36-1.2c0-.11-.06-.21-.08-.28L1.93,2l-.07.75c0,.24-.05.63-.09,1.19L1.54,7.53c0,.18,0,.44,0,.79H0Z"/><path class="cls-1" d="M10.68,8.32q.09-.87.12-1.47c0-.62.08-1.34.1-2.16S11,3.1,11,2.36l.85,0,.85,0q-.08,1-.12,1.95c0,.62-.06,1.32-.07,2.12s0,1.43,0,1.89H10.68Z"/><path class="cls-1" d="M14,8.32l.11-1.39.14-3.07.07-2.23c0-.21,0-.41,0-.62s0-.38,0-.68h1.22l1,0,1.06,0a4.32,4.32,0,0,1,1.19.12,1.92,1.92,0,0,1,.71.4,2,2,0,0,1,.46.67,2.33,2.33,0,0,1,.17.93,2.58,2.58,0,0,1-.37,1.37,2.35,2.35,0,0,1-1.05.92A3.44,3.44,0,0,1,17.27,5a5.18,5.18,0,0,1-.85-.08c-.09-.41-.19-.79-.29-1.15a3.51,3.51,0,0,0,.71.08,2.19,2.19,0,0,0,.85-.15,1.16,1.16,0,0,0,.56-.47,1.37,1.37,0,0,0,.21-.75,1.25,1.25,0,0,0-.08-.45.78.78,0,0,0-.26-.33,1,1,0,0,0-.37-.17,2.78,2.78,0,0,0-.57,0H15.93c0,.77-.09,1.5-.11,2.2L15.75,6q0,1.18,0,1.74v.61H14Z"/><path class="cls-2" d="M11,1.58c0-.29,0-.81.06-1.58h1.66c0,.29,0,.57-.05.86l0,.72-.77,0Z"/></g></g></svg>