<svg xmlns="http://www.w3.org/2000/svg" xmlns:xlink="http://www.w3.org/1999/xlink" viewBox="0 0 297.72 539.58"><defs><style>.cls-1{fill:#b1060f;stroke:#000;}.cls-2{fill:url(#무제_그라디언트_2);}.cls-3{fill:#e50914;}</style><radialGradient id="무제_그라디언트_2" cx="17223.48" cy="53.89" r="79.78" gradientTransform="matrix(0.23, -0.08, 2.94, 8.48, -4002.42, 1190.6)" gradientUnits="userSpaceOnUse"><stop offset="0"/><stop offset="1" stop-opacity="0"/></radialGradient></defs><g id="Layer_2" data-name="Layer 2"><g id="svg2"><g id="layer1"><g id="g4182"><g id="g5747"><path id="path4155" class="cls-1" d="M191.42.93l-.21,119L191,239l-9.78-27.63v-.07l-12.68,265c12.47,35.14,19.13,53.92,19.2,54s7.15.49,15.73.92c25.93,1.27,58.09,4,82.53,7.08,5.67.71,10.48,1.06,10.84.78s.42-121.42.35-269.27L297,.93Z"/><path id="path4157" class="cls-1" d="M.5.57V269.63c0,148,.14,269.21.35,269.42s9.36-.71,20.41-1.91,26.28-2.76,33.86-3.4c11.62-1,46.47-3.19,50.44-3.26,1.21,0,1.28-6,1.42-114l.21-114,8.43,23.8c1.28,3.68,1.7,4.82,3,8.43L131.28,69.86C128.59,62.28,130,66.24,127,57.6c-10.35-29.26-19.13-54-19.49-55.12l-.7-2H.5Z"/><path id="path5715" class="cls-1" d="M191.42.93l-.21,119L191,239l-9.78-27.63v-.07l-12.68,265c12.47,35.14,19.13,53.92,19.2,54s7.15.49,15.73.92c25.93,1.27,58.09,4,82.53,7.08,5.67.71,10.48,1.06,10.84.78s.42-121.42.35-269.27L297,.93Z"/><path id="path5717" class="cls-1" d="M.5.57V269.63c0,148,.14,269.21.35,269.42s9.36-.71,20.41-1.91,26.28-2.76,33.86-3.4c11.62-1,46.47-3.19,50.44-3.26,1.21,0,1.28-6,1.42-114l.21-114,8.43,23.8c1.28,3.68,1.7,4.82,3,8.43L131.28,69.86C128.59,62.28,130,66.24,127,57.6c-10.35-29.26-19.13-54-19.49-55.12l-.7-2H.5Z"/><path id="path5719" class="cls-2" d="M.5.57v151L106.91,433.85c0-6.45,0-10,.07-17.36l.21-114,8.43,23.8c46.76,132.62,71.91,203.74,72,203.89s7.15.49,15.73.92c25.92,1.27,58.09,4,82.53,7.08,5.67.71,10.48,1.06,10.84.78s.35-59.58.35-143.39L191.28,91.11l-.07,28.83L191,239l-9.78-27.63c-9.56-27-15.94-45.06-54.41-153.73-10.34-29.26-19.12-54-19.48-55.12l-.71-2H.5V.57Z"/><path id="path5721" class="cls-3" d="M.5.57,107.12,302.72v-.14l8.43,23.8c46.83,132.55,72,203.67,72.12,203.82s7.15.49,15.73.92c25.92,1.27,58.09,4,82.53,7.08,5.6.71,10.48,1.06,10.77.78L191,238.89V239l-9.78-27.63c-9.56-27-15.94-45.06-54.41-153.73-10.34-29.26-19.12-54-19.48-55.12l-.71-2H53.56L.5.57Z"/></g></g></g></g></g></svg>