<svg xmlns="http://www.w3.org/2000/svg" viewBox="0 0 548.42 622.41"><defs><style>.cls-1{fill:#fff;}.cls-2{fill:#b59924;}</style></defs><g id="Layer_2" data-name="Layer 2"><g id="Layer_1-2" data-name="Layer 1"><rect class="cls-1" x="169.8" y="254.96" width="207.63" height="367.45"/><path id="path4156" class="cls-2" d="M274.22,0l274.2,622.41H374.6l-22.66-53.29H324.32c-5.41-8-4.85-9.55-14.12-10.61-20.69-1.08-23.45-3.7-23.45-19.06,0-13.81,6.13-39.77,6.65-49.79.56-12.76-1.07-17.48-1.07-26.5s6-19.1,7.06-40.29-3.95-36.49-3.95-36.49c4.43-.59,9.82-3.74,11.49-7.47,2.15-5.27,9.24-33.92,9.24-45.54a39.32,39.32,0,0,0-1.61-12.18c-5-11.73-19.49-9.69-26-17.21-2-2.34-3.33-2.21-3.47-10.66,3.4-4.66,4.44-11.67,4.44-21.78,0-8.43-6.58-15-15.29-15s-15.3,6.52-15.3,15c0,10.11,1,17.12,4.44,21.78-.16,8.45-1.44,8.32-3.5,10.66-6.51,7.52-21,5.48-26,17.21a40.07,40.07,0,0,0-1.56,12.18c0,11.62,7.07,40.27,9.21,45.54,1.67,3.73,7.08,6.88,11.47,7.47,0,0-5,15.3-3.94,36.49s7.08,31.26,7.08,40.29-1.65,13.74-1.07,26.5c.52,10,6.65,36,6.65,49.79,0,15.36-2.75,18-23.45,19.06-9.25,1.06-8.71,2.64-14.11,10.61H196.48l-22.65,53.29H0L274.22,0Z"/></g></g></svg>