<svg xmlns="http://www.w3.org/2000/svg" viewBox="0 0 203.64 148.19"><defs><style>.cls-1{fill:#e72562;fill-rule:evenodd;}</style></defs><g id="Layer_2" data-name="Layer 2"><g id="Layer_1-2" data-name="Layer 1"><path class="cls-1" d="M152.41,91.34V72.05c0-3.2-1.66-6.39-3.2-8.81a13.33,13.33,0,0,0-8.81-4H12.14a13.09,13.09,0,0,0-8.82,4C1.66,65.66,0,68.85,0,72.05v63.24c0,4.09,1.66,6.52,3.32,8.94a13.09,13.09,0,0,0,8.82,4H140.4a13.33,13.33,0,0,0,8.81-4c1.54-2.42,3.2-4.85,3.2-8.94V115.36l.77.76,50.46,31.18V60l-50.46,31.3-.77.77Zm-13.67-61.7c0-8-3.19-16-8.82-20.82A28.94,28.94,0,0,0,109.1,0C100.29,0,93,3.19,88.28,8.82c-5.62,4.85-8.82,12.77-8.82,20.82s3.2,16,8.82,20.82c4.72,5.62,12,8.82,20.82,8.82a29,29,0,0,0,20.82-8.82c5.63-4.85,8.82-12.78,8.82-20.82ZM60.17,36A23.39,23.39,0,0,0,53,19.29C48.93,14.43,42.54,12,36.15,12s-12.9,2.42-16.86,7.28c-4,4-6.39,9.58-6.39,16.73a26.35,26.35,0,0,0,6.39,16.87c4,4,10.48,6.39,16.86,6.39S48.93,56.85,53,52.89C57,48,60.17,42.41,60.17,36Z"/></g></g></svg>