<svg xmlns="http://www.w3.org/2000/svg" viewBox="0 0 63.85 51.89"><defs><style>.cls-1{fill:#fff;}</style></defs><g id="Layer_2" data-name="Layer 2"><g id="Layer_1-2" data-name="Layer 1"><path class="cls-1" d="M20.08,51.89c24.09,0,37.27-20,37.27-37.27,0-.57,0-1.13,0-1.69a26.72,26.72,0,0,0,6.54-6.79A25.77,25.77,0,0,1,56.32,8.2,13.06,13.06,0,0,0,62.08,1a26.3,26.3,0,0,1-8.31,3.18A13.11,13.11,0,0,0,31.44,16.08,37.19,37.19,0,0,1,4.44,2.4,13.12,13.12,0,0,0,8.5,19.89a13,13,0,0,1-5.93-1.64.86.86,0,0,0,0,.16A13.11,13.11,0,0,0,13.07,31.26a13,13,0,0,1-5.91.22,13.1,13.1,0,0,0,12.23,9.1A26.3,26.3,0,0,1,3.12,46.19,26.81,26.81,0,0,1,0,46a37.13,37.13,0,0,0,20.08,5.88"/></g></g></svg>