<svg xmlns="http://www.w3.org/2000/svg" viewBox="0 0 178.12 125.49"><defs><style>.cls-1{fill:#fff;}</style></defs><g id="Layer_2" data-name="Layer 2"><g id="Layer_1-2" data-name="Layer 1"><path class="cls-1" d="M174.4,19.6A22.38,22.38,0,0,0,158.65,3.75C144.76,0,89.06,0,89.06,0S33.36,0,19.47,3.75A22.38,22.38,0,0,0,3.72,19.6C0,33.58,0,62.75,0,62.75S0,91.92,3.72,105.9a22.4,22.4,0,0,0,15.75,15.85c13.89,3.74,69.59,3.74,69.59,3.74s55.7,0,69.59-3.74A22.4,22.4,0,0,0,174.4,105.9c3.72-14,3.72-43.15,3.72-43.15S178.12,33.58,174.4,19.6Z"/><polygon points="70.84 89.23 70.84 36.26 117.4 62.75 70.84 89.23"/></g></g></svg>